<svg width="1080" height="1080" viewBox="0 0 1080 1080" fill="none" xmlns="http://www.w3.org/2000/svg">
<rect x="31" y="31" width="1017" height="1017" rx="50" fill="white"/>
<path d="M186.144 802V275.455H393.883C433.648 275.455 467.585 282.568 495.695 296.794C523.976 310.849 545.487 330.817 560.228 356.699C575.14 382.409 582.596 412.661 582.596 447.456C582.596 482.422 575.054 512.503 559.971 537.699C544.887 562.723 523.034 581.92 494.41 595.29C465.957 608.659 431.505 615.344 391.055 615.344H251.962V525.872H373.057C394.311 525.872 411.966 522.958 426.021 517.131C440.075 511.303 450.531 502.562 457.387 490.906C464.414 479.251 467.928 464.768 467.928 447.456C467.928 429.973 464.414 415.232 457.387 403.234C450.531 391.236 439.99 382.152 425.763 375.982C411.708 369.64 393.968 366.469 372.543 366.469H297.469V802H186.144ZM470.499 562.381L601.364 802H478.469L350.432 562.381H470.499Z" fill="black"/>
<rect x="706" y="676" width="125.67" height="125.67" fill="#E7672D"/>
</svg>
